<svg width="165" height="36" viewBox="0 0 165 36" fill="none" xmlns="http://www.w3.org/2000/svg">
	<path d="M60.0735 14.8433V22.2135H67.5827L67.246 22.9334C66.0337 25.5387 63.6092 26.8756 60.0735 26.8756C57.0092 26.8756 54.7194 25.9158 53.2378 24.0646C51.7898 22.2135 51.049 20.0539 51.049 17.5857C51.049 14.9804 51.8572 12.7865 53.4398 11.141C55.0225 9.46131 57.1439 8.63859 59.6694 8.63859C62.599 8.63859 64.8551 9.63271 66.3031 11.621L73.6776 7.33595C72.2296 5.1763 70.3102 3.39373 67.9194 2.09109C65.3939 0.685603 62.5317 0 59.4674 0C54.5847 0 50.4766 1.67973 47.2439 5.03918C46.6378 5.65622 46.099 6.30754 45.5939 6.99314C45.8296 7.88443 45.9307 8.87855 45.9307 9.97551C45.9307 12.855 44.9205 15.1861 42.9337 16.9001C45.5602 18.6484 46.9072 21.2537 46.9072 24.5788C46.9072 26.1557 46.6715 27.5612 46.1664 28.8296C46.5031 29.2409 46.8398 29.6523 47.2439 30.0294C50.4766 33.3546 54.7194 35.0343 59.8378 35.0343C64.7541 35.0343 68.7276 33.4574 71.7245 30.3722C74.7215 27.287 76.2368 23.2762 76.2368 18.5113V14.8433H60.0735Z" fill="white" />
	<path d="M42.3612 17.6885C42.1928 17.5857 42.0245 17.4828 41.8561 17.38L41.8224 17.3457L41.3847 17.0715L41.149 16.9343L41.3847 16.7629L41.7551 16.4887C41.7888 16.4544 41.8561 16.4201 41.8898 16.3859C42.0581 16.2487 42.2602 16.1116 42.4285 15.9402C44.1459 14.4319 44.9541 12.4436 44.9541 9.90692C44.9541 9.28988 44.9204 8.67284 44.8194 8.12435C44.7857 7.88439 44.752 7.64443 44.6847 7.40447C44.651 7.19879 44.5836 6.95883 44.5163 6.75315C44.0785 5.2791 43.2704 4.0793 42.1255 3.11946C40.2398 1.54257 37.4112 0.719849 33.7408 0.719849H20.8102V2.05677C21.2816 2.39957 21.753 2.77666 22.1908 3.2223C24.649 5.55335 25.8949 8.70712 25.8949 12.5808C25.8949 16.4544 24.649 19.6082 22.1908 21.9392C21.753 22.3506 21.2816 22.762 20.8102 23.1048V34.2115H34.6163C38.3204 34.2115 41.149 33.3545 43.0683 31.6405C43.9102 30.8863 44.55 29.9951 45.0214 28.9667C45.0887 28.7953 45.1898 28.6239 45.2571 28.4182C45.3245 28.2125 45.3918 28.0411 45.4592 27.8354C45.7622 26.8413 45.9306 25.7443 45.9306 24.5445C45.8969 21.4936 44.752 19.2654 42.3612 17.6885ZM35.9632 25.5044C35.4581 25.95 34.7847 26.19 34.0439 26.19H29.9694V21.2879L34.549 21.3222C35.9969 21.5622 36.7377 22.3506 36.7377 23.7218C36.7377 24.476 36.4683 25.0587 35.9632 25.5044ZM29.9694 8.67284H33.1683C33.8755 8.67284 34.4816 8.87852 35.0204 9.2556C35.5255 9.63268 35.7949 10.2154 35.7949 10.9696C35.7949 12.2722 35.0877 13.0264 33.7071 13.2321L29.9694 13.3007V8.67284Z" fill="white" />
	<path d="M21.5173 3.94218C21.2816 3.7365 21.0459 3.53082 20.8102 3.32514C20.6418 3.18802 20.4735 3.0509 20.3051 2.94806C20.1367 2.81094 19.9684 2.7081 19.8 2.60525C17.8806 1.33689 15.6245 0.719849 13.0316 0.719849H0V34.1772H8.68775V24.4074H13.0653C15.6245 24.4074 17.8806 23.7904 19.8337 22.522C20.002 22.4192 20.1704 22.3163 20.3388 22.1792C20.5071 22.0764 20.6755 21.9392 20.8439 21.8021C21.0796 21.5964 21.3153 21.3908 21.551 21.1851C23.7735 19.0597 24.9184 16.1459 24.9184 12.5808C24.8847 8.98136 23.7398 6.10183 21.5173 3.94218ZM15.2878 14.9804C14.6816 15.5631 13.9408 15.8717 13.0653 15.8717H8.68775V9.2556H13.0653C13.9408 9.2556 14.6816 9.56412 15.2878 10.1469C15.8939 10.7639 16.1969 11.5524 16.1969 12.5465C16.1969 13.5749 15.8939 14.3633 15.2878 14.9804Z" fill="white" />
	<path d="M83.8132 0.205688V34.6572" stroke="white" stroke-miterlimit="10" />
	<path d="M93.6797 1.5426C94.3195 1.5426 94.8582 1.74828 95.296 2.19392C95.7337 2.63957 95.9358 3.18805 95.9358 3.83937C95.9358 4.49069 95.7337 5.03918 95.296 5.48482C94.8582 5.93046 94.3195 6.13614 93.6797 6.13614H91.8276V8.87855H91.0868V1.5426H93.6797ZM93.6797 5.48482C94.1174 5.48482 94.4878 5.3477 94.7909 5.03917C95.0939 4.73065 95.2286 4.35357 95.2286 3.87365C95.2286 3.39373 95.0939 3.01665 94.7909 2.70813C94.4878 2.39961 94.1174 2.26249 93.6797 2.26249H91.8276V5.5191H93.6797V5.48482Z" fill="white" />
	<path d="M101.66 8.91283L99.9765 5.96474H97.9225V8.91283H97.1816V1.5426H100.078C100.684 1.5426 101.189 1.74828 101.627 2.19392C102.064 2.63957 102.266 3.15377 102.266 3.77081C102.266 4.28501 102.132 4.73065 101.829 5.10774C101.526 5.48482 101.155 5.75906 100.717 5.89618L102.502 8.94711H101.66V8.91283ZM97.9225 2.2282V5.27914H100.111C100.515 5.27914 100.852 5.14202 101.155 4.83349C101.425 4.52497 101.593 4.18217 101.593 3.77081C101.593 3.35945 101.458 2.98237 101.155 2.70813C100.886 2.39961 100.515 2.26249 100.111 2.26249H97.9225V2.2282Z" fill="white" />
	<path d="M108.025 8.33006C107.519 8.80999 106.88 9.04995 106.071 9.04995C105.263 9.04995 104.623 8.80999 104.118 8.33006C103.613 7.85014 103.378 7.19882 103.378 6.41038V1.5426H104.118V6.41038C104.118 6.99314 104.287 7.47306 104.623 7.81586C104.96 8.15866 105.465 8.33006 106.071 8.33006C106.678 8.33006 107.183 8.15866 107.519 7.81586C107.856 7.47306 108.025 6.99314 108.025 6.41038V1.5426H108.765V6.41038C108.765 7.19882 108.53 7.85014 108.025 8.33006Z" fill="white" />
	<path d="M113.143 1.5426C114.119 1.5426 114.961 1.8854 115.601 2.60529C116.241 3.32517 116.578 4.18217 116.578 5.24486C116.578 6.27326 116.241 7.16454 115.601 7.88443C114.961 8.60431 114.119 8.94711 113.143 8.94711H110.348V1.5426H113.143ZM113.143 8.22723C113.951 8.22723 114.591 7.95299 115.096 7.37022C115.601 6.78746 115.87 6.06758 115.87 5.24486C115.87 4.42213 115.601 3.70225 115.096 3.11949C114.591 2.53673 113.951 2.26249 113.143 2.26249H111.055V8.26151H113.143V8.22723Z" fill="white" />
	<path d="M118.531 8.22723H122.066V8.91283H117.823V1.5426H122.033V2.2282H118.531V4.83349H121.763V5.5191H118.531V8.22723Z" fill="white" />
	<path d="M127.959 1.5426H128.7V8.94711H128.094L124.053 2.91381V8.94711H123.312V1.5426H123.952L127.993 7.54162V1.5426H127.959Z" fill="white" />
	<path d="M134.93 1.5426V2.2282H132.674V8.91283H131.933V2.2282H129.71V1.5426H134.93Z" fill="white" />
	<path d="M93.8817 14.192C94.8582 14.192 95.7001 14.5348 96.3399 15.2547C96.9797 15.9746 97.3164 16.8316 97.3164 17.8943C97.3164 18.9227 96.9797 19.814 96.3399 20.5338C95.7001 21.2537 94.8582 21.5965 93.8817 21.5965H91.0868V14.192H93.8817ZM93.8817 20.9109C94.6898 20.9109 95.3297 20.6367 95.8348 20.0539C96.3399 19.4712 96.6092 18.7513 96.6092 17.9286C96.6092 17.0715 96.3399 16.3859 95.8348 15.8032C95.3297 15.2204 94.6898 14.9462 93.8817 14.9462H91.7939V20.9452H93.8817V20.9109Z" fill="white" />
	<path d="M98.5624 14.192H99.3032V21.5965H98.5624V14.192Z" fill="white" />
	<path d="M107.89 18.0656V18.4427C107.89 19.3683 107.553 20.1224 106.913 20.7738C106.274 21.3908 105.398 21.7336 104.32 21.7336C103.209 21.7336 102.3 21.3565 101.593 20.6366C100.886 19.8825 100.515 18.9912 100.515 17.9285C100.515 16.8658 100.886 15.9403 101.593 15.2204C102.3 14.4662 103.209 14.1234 104.32 14.1234C104.994 14.1234 105.6 14.2948 106.173 14.6033C106.745 14.9461 107.149 15.3575 107.486 15.9403L106.846 16.3173C106.61 15.8717 106.274 15.4946 105.836 15.2547C105.398 14.9804 104.893 14.8433 104.354 14.8433C103.445 14.8433 102.704 15.1518 102.132 15.7346C101.559 16.3173 101.256 17.0715 101.256 17.9285C101.256 18.7855 101.559 19.5397 102.132 20.1224C102.704 20.7052 103.445 21.0137 104.354 21.0137C105.162 21.0137 105.836 20.808 106.307 20.3967C106.779 19.9853 107.082 19.4368 107.149 18.7855H104.253V18.0999H107.89V18.0656Z" fill="white" />
	<path d="M109.136 14.192H109.877V21.5965H109.136V14.192Z" fill="white" />
	<path d="M116.072 14.192V14.8776H113.85V21.5622H113.109V14.9119H110.887V14.2263H116.072V14.192Z" fill="white" />
	<path d="M121.427 21.5965L120.753 19.7797H117.318L116.645 21.5965H115.87L118.665 14.192H119.406L122.201 21.5965H121.427ZM117.554 19.0941H120.484L119.002 15.1519L117.554 19.0941Z" fill="white" />
	<path d="M123.851 20.9109H127.185V21.5965H123.144V14.192H123.885V20.9109H123.851Z" fill="white" />
	<path d="M91.0868 26.8756H91.8276V34.2801H91.0868V26.8756Z" fill="white" />
	<path d="M98.1246 26.8756H98.8654V34.2801H98.2593L94.2185 28.2468V34.2801H93.4777V26.8756H94.1175L98.1583 32.8746V26.8756H98.1246Z" fill="white" />
	<path d="M105.095 26.8756V27.5612H102.873V34.2458H102.132V27.5955H99.9093V26.9099H105.095V26.8756Z" fill="white" />
	<path d="M106.846 33.5945H110.382V34.2801H106.139V26.8756H110.348V27.5612H106.88V30.1665H110.112V30.8521H106.88V33.5945H106.846Z" fill="white" />
	<path d="M116.072 34.2801L114.389 31.332H112.335V34.2801H111.594V26.8756H114.49C115.096 26.8756 115.601 27.0813 116.039 27.5269C116.477 27.9726 116.679 28.4868 116.679 29.1038C116.679 29.618 116.544 30.0637 116.241 30.4407C115.938 30.8178 115.567 31.0921 115.13 31.2292L116.914 34.2801H116.072ZM112.368 27.5955V30.6464H114.557C114.961 30.6464 115.298 30.5093 115.601 30.2008C115.87 29.8923 116.039 29.5495 116.039 29.1381C116.039 28.7267 115.904 28.3497 115.601 28.0754C115.332 27.7669 114.961 27.6298 114.557 27.6298H112.368V27.5955Z" fill="white" />
	<path d="M122.639 26.8756H123.38V34.2801H122.773L118.733 28.2468V34.2801H117.992V26.8756H118.632L122.672 32.8746V26.8756H122.639Z" fill="white" />
	<path d="M129.845 34.2801L129.171 32.4633H125.737L125.063 34.2801H124.289L127.084 26.8756H127.825L130.619 34.2801H129.845ZM125.972 31.7777H128.902L127.42 27.8355L125.972 31.7777Z" fill="white" />
	<path d="M135.603 26.8756V27.5612H133.347V34.2458H132.606V27.5955H130.384V26.9099H135.603V26.8756Z" fill="white" />
	<path d="M136.647 26.8756H137.388V34.2801H136.647V26.8756Z" fill="white" />
	<path d="M145.032 33.286C144.291 34.0402 143.415 34.4173 142.372 34.4173C141.328 34.4173 140.418 34.0402 139.711 33.286C138.971 32.5319 138.634 31.6406 138.634 30.5779C138.634 29.5152 139.004 28.6239 139.711 27.8698C140.452 27.1156 141.328 26.7385 142.372 26.7385C143.415 26.7385 144.325 27.1156 145.032 27.8698C145.773 28.6239 146.109 29.5152 146.109 30.5779C146.109 31.6406 145.739 32.5319 145.032 33.286ZM140.216 32.7718C140.789 33.3889 141.53 33.6631 142.372 33.6631C143.213 33.6631 143.954 33.3546 144.527 32.7718C145.099 32.1548 145.402 31.4349 145.402 30.5779C145.402 29.7209 145.099 28.9667 144.527 28.384C143.954 27.7669 143.213 27.4927 142.372 27.4927C141.53 27.4927 140.789 27.8012 140.216 28.384C139.644 29.001 139.341 29.7209 139.341 30.5779C139.341 31.4349 139.61 32.1891 140.216 32.7718Z" fill="white" />
	<path d="M152.036 26.8756H152.777V34.2801H152.171L148.13 28.2468V34.2801H147.389V26.8756H148.029L152.07 32.8746V26.8756H152.036Z" fill="white" />
	<path d="M159.242 34.2801L158.568 32.4633H155.134L154.46 34.2801H153.686L156.481 26.8756H157.222L160.016 34.2801H159.242ZM155.403 31.7777H158.333L156.851 27.8355L155.403 31.7777Z" fill="white" />
	<path d="M161.666 33.5945H165V34.2801H160.959V26.8756H161.7V33.5945H161.666Z" fill="white" />
	<path d="M152.271 7.71306L146.446 10.3183L139.509 6.54753L138.196 1.40552L152.271 7.71306Z" fill="white" />
	<path d="M152.776 8.98145V13.9178L147.254 11.4496L152.776 8.98145Z" fill="white" />
	<path d="M152.642 15.3575L138.162 21.8022L139.509 16.3516L146.446 12.5808L151.834 14.9804L152.642 15.3575Z" fill="white" />
</svg>
