<svg width="28" height="28" viewBox="0 0 48 48" fill="none" xmlns="http://www.w3.org/2000/svg">
	<path d="M45 22.5C45 10.0702 34.9214 0 22.5 0C10.0702 0 0 10.0702 0 22.5C0 33.7275 8.22516 43.0369 18.9844 44.723V29.0053H13.2708V22.5014H18.9844V17.5416C18.9844 11.9039 22.3383 8.79047 27.4795 8.79047C29.9419 8.79047 32.5195 9.22922 32.5195 9.22922V14.7656H29.6775C26.8875 14.7656 26.0156 16.5023 26.0156 18.2812V22.5H32.2552L31.2525 29.0039H26.0156V44.7216C36.7664 43.0355 45 33.7261 45 22.4986V22.5Z" fill="#47518b" />
</svg>
